<svg xmlns="http://www.w3.org/2000/svg" xmlns:svg="http://www.w3.org/2000/svg" id="ae5f5559-570c-4c14-9324-22f1786600a2" width="826.929" height="509.009" data-name="Layer 1" version="1.1" viewBox="0 0 826.929 509.009"><metadata id="metadata211"/><title id="title136">static_website</title><rect id="rect138" width="357.722" height="599.889" x="133.754" y="1431.993" fill="#3f3d56" transform="matrix(0.25609771,-0.9666509,0.9573403,0.28896288,0,0)" style="fill:#06f;stroke-width:1.15842"/><ellipse id="circle140" cx="1506.691" cy="-46.83" fill="#00b0ff" rx="4.756" ry="5.077" style="fill:#fff;stroke-width:1.15808"/><ellipse id="circle142" cx="1521.338" cy="-42.41" fill="#00b0ff" rx="4.756" ry="5.077" style="fill:#fff;stroke-width:1.15808"/><ellipse id="circle144" cx="1535.983" cy="-37.989" fill="#00b0ff" rx="4.756" ry="5.077" style="fill:#fff;stroke-width:1.15808"/><path id="path146" fill="#00b0ff" d="m 1801.5574,158.12439 a 55.566115,59.310267 0 0 0 -23.2074,0.58465 55.466969,59.20444 0 0 0 1.6405,-25.02978 55.142605,58.85822 0 0 0 -20.7442,14.28879 55.141899,58.857466 0 0 0 -10.6619,-23.76838 55.466341,59.20377 0 0 0 -10.8826,22.24013 55.566384,59.310554 0 0 0 -19.4838,-13.47049 c 0,0 -3.4638,18.80357 4.8754,34.23296 7.4222,13.7328 21.6827,20.15926 24.7311,21.40755 l 0.072,0.0914 0.038,-0.0464 c 0.3094,0.12526 0.4826,0.18915 0.4826,0.18915 0,0 0.065,-0.36117 0.1558,-1.00572 0.055,-0.0723 0.1098,-0.14576 0.1708,-0.22686 0.012,0.1029 0.024,0.19641 0.035,0.28861 -0.2393,0.59962 -0.3608,0.94401 -0.3608,0.94401 0,0 0.179,0.0423 0.5041,0.10864 l 0.011,0.061 0.1054,-0.0379 c 3.2096,0.64067 18.511,3.13712 31.5719,-4.41307 14.6743,-8.48298 20.949,-26.43815 20.949,-26.43815 z" style="fill:#fff;stroke-width:1.15808"/><ellipse id="circle148" cx="1773.096" cy="96.892" fill="#00b0ff" rx="12.367" ry="13.2" style="fill:#fff;stroke-width:1.15808"/><rect id="rect150" width="388.203" height="8.928" x="1545.692" y="-300.575" fill="#00b0ff" transform="matrix(0.9573403,0.28896288,-0.25609771,0.9666509,0,0)" style="fill:#f9f9f9;stroke-width:1.15842"/><rect id="rect152" width="66.931" height="70.753" x="1582.026" y="-256.102" fill="#00b0ff" transform="matrix(0.9573403,0.28896288,-0.25609771,0.9666509,0,0)" style="fill:#fff;stroke-width:1.15842"/><rect id="rect154" width="66.931" height="70.753" x="1706.328" y="-256.102" fill="#00b0ff" transform="matrix(0.9573403,0.28896288,-0.25609771,0.9666509,0,0)" style="fill:#fff;stroke-width:1.15842"/><rect id="rect156" width="66.931" height="70.753" x="1829.205" y="-255.676" fill="#00b0ff" transform="matrix(0.9573403,0.28896288,-0.25609771,0.9666509,0,0)" style="fill:#fff;stroke-width:1.15842"/><rect id="rect158" width="49.721" height="6.065" x="1590.632" y="-171.198" fill="#00b0ff" transform="matrix(0.9573403,0.28896288,-0.25609771,0.9666509,0,0)" style="fill:#fff;stroke-width:1.15842"/><rect id="rect160" width="49.721" height="6.065" x="1714.933" y="-171.198" fill="#00b0ff" transform="matrix(0.9573403,0.28896288,-0.25609771,0.9666509,0,0)" style="fill:#fff;stroke-width:1.15842"/><rect id="rect162" width="49.721" height="6.065" x="1839.234" y="-171.198" fill="#00b0ff" transform="matrix(0.9573403,0.28896288,-0.25609771,0.9666509,0,0)" style="fill:#fff;stroke-width:1.15842"/><path id="path168" fill="#3f3d56" d="m 1768.773,450.62351 h 71.4682 v 31.90195 h -41.5801 v 31.90193 h 41.5838 v 31.90002 h -71.4719 z m 85.7636,0 h 71.47 v 27.74065 h -41.582 v 5.54773 h 41.582 v 63.8039 h -71.4681 v -29.13105 h 41.582 v -5.54773 h -41.5857 v -62.4135 z m 85.7655,0 h 71.47 v 27.74065 h -41.582 v 5.54773 h 41.582 v 63.8039 h -71.47 v -29.13105 h 41.582 v -5.54773 h -41.5801 v -62.4135 z" style="fill:#fff;stroke-width:1.15808"/><path id="path170" fill="#3f3d56" d="m 1144.1394,304.65536 h 29.4829 v 31.09153 h 26.9707 v -31.09153 h 29.4848 v 94.15294 h -29.4829 v -31.52782 h -26.9707 v 31.52781 h -29.483 v -94.15293 z m 124.7078,31.22338 h -25.9515 v -31.22338 h 81.4079 v 31.22338 h -25.968 v 62.92956 h -29.4829 v -62.92956 z m 68.3758,-31.22338 h 30.742 l 18.9105,33.08286 18.8924,-33.08286 h 30.7546 v 94.15294 h -29.3631 v -46.66734 l -20.2839,33.47647 h -0.5087 l -20.2965,-33.47647 v 46.66734 h -28.8473 z m 113.972,0 h 29.492 v 63.03233 h 41.4615 v 31.12061 h -70.9554 v -94.15294 z" style="fill:#fff;stroke-width:1.15808"/></svg>