<svg xmlns="http://www.w3.org/2000/svg" xmlns:svg="http://www.w3.org/2000/svg" id="ae5f5559-570c-4c14-9324-22f1786600a2" width="1015.128" height="526" data-name="Layer 1" version="1.1" viewBox="0 0 1015.128 526"><metadata id="metadata211"/><title id="title136">static_website</title><rect id="rect138" width="300.346" height="532.432" x="600.647" y="143.872" fill="#3f3d56" transform="translate(59.46229 833.98563) rotate(-74.20991)" style="fill:#06f"/><circle id="circle140" cx="451.929" cy="18.229" r="4.243" fill="#00b0ff" style="fill:#fff"/><circle id="circle142" cx="464.995" cy="21.924" r="4.243" fill="#00b0ff" style="fill:#fff"/><circle id="circle144" cx="478.061" cy="25.618" r="4.243" fill="#00b0ff" style="fill:#fff"/><path id="path146" fill="#00b0ff" d="M807.41965,376.52959a49.57145,49.57145,0,0,0-20.70373.48865,49.483,49.483,0,0,0,1.46357-20.91986,49.19363,49.19363,0,0,0-18.50638,11.94255,49.193,49.193,0,0,0-9.51152-19.86558,49.48244,49.48244,0,0,0-9.70867,18.58827A49.57169,49.57169,0,0,0,733.07115,355.505s-3.09015,15.716,4.34937,28.61187c6.62151,11.47786,19.34349,16.84908,22.06311,17.8924l.06371.07642.03418-.03883c.276.10469.43054.15809.43054.15809s.05845-.30187.139-.84058c.04889-.0604.09834-.12183.15239-.18961.01056.086.02049.16416.03051.24122-.21353.50116-.32189.789-.32189.789s.15966.0354.44964.09076l.00877.051.09429-.03174c2.8634.53547,16.51408,2.622,28.16579-3.68844C801.82182,391.5365,807.41965,376.52959,807.41965,376.52959Z" transform="translate(-92.43613 -187)" style="fill:#fff"/><circle id="circle148" cx="689.592" cy="138.352" r="11.032" fill="#00b0ff" style="fill:#fff"/><rect id="rect150" width="344.549" height="7.496" x="581.484" y="421.571" fill="#00b0ff" transform="translate(51.74221 -376.0588) rotate(15.79009)" style="fill:#f9f9f9"/><rect id="rect152" width="59.405" height="59.405" x="600.672" y="426.503" fill="#00b0ff" transform="translate(55.49076 -341.31883) rotate(15.79009)" style="fill:#fff"/><rect id="rect154" width="59.405" height="59.405" x="706.833" y="456.523" fill="#00b0ff" transform="translate(67.66575 -369.07379) rotate(15.79009)" style="fill:#fff"/><rect id="rect156" width="59.405" height="59.405" x="780.575" y="83.321" fill="#00b0ff" transform="rotate(15.79009)" style="fill:#fff"/><rect id="rect158" width="44.129" height="5.092" x="596.302" y="496.124" fill="#00b0ff" transform="translate(66.59275 -336.44884) rotate(15.79009)" style="fill:#fff"/><rect id="rect160" width="44.129" height="5.092" x="702.463" y="526.144" fill="#00b0ff" transform="translate(78.76773 -364.20379) rotate(15.79009)" style="fill:#fff"/><rect id="rect162" width="44.129" height="5.092" x="808.623" y="556.165" fill="#00b0ff" transform="translate(90.94272 -391.95875) rotate(15.79009)" style="fill:#fff"/><ellipse id="ellipse164" cx="289.6" cy="396.5" fill="#d0cde1" rx="284" ry="10.5"/><ellipse id="ellipse166" cx="794.128" cy="515.5" fill="#d0cde1" rx="221" ry="10.5"/><path id="path168" fill="#3f3d56" d="M778.1721,621H841.93v26.66361H804.83571v26.6636h37.09761v26.662H778.1721Zm76.51116,0h63.75958v23.1856h-37.096v4.63679h37.096v53.32722H854.68491V677.80192h37.096v-4.63679H854.68161V621Zm76.51281,0h63.75958v23.1856h-37.096v4.63679h37.096v53.32722H931.19607V677.80192h37.096v-4.63679H931.19773V621Z" transform="translate(-92.43613 -187)" style="fill:#fff"/><path id="path170" fill="#3f3d56" d="M220.92612,499h26.30227v25.98626h24.061V499h26.30389v78.69291H271.291V551.342H247.23v26.3509H220.92774V499Zm111.25393,26.09646H309.02821V499h72.6254v26.09646H358.48719v52.59645H332.18492V525.09646h-.00487ZM393.17929,499h27.42535l16.87042,27.65061L454.32925,499h27.43668v78.69291H455.57061V538.6884L437.475,566.668h-.45376L418.91436,538.6884v39.00451H393.17929Zm101.67621,0h26.31038v52.68234h36.9885v26.01057H494.85389V499Z" transform="translate(-92.43613 -187)" style="fill:#fff"/></svg>